<?xml version="1.0" encoding="UTF-8" standalone="no"?>
<!-- Created with Inkscape (http://www.inkscape.org/) -->

<svg
   xmlns:dc="http://purl.org/dc/elements/1.1/"
   xmlns:cc="http://creativecommons.org/ns#"
   xmlns:rdf="http://www.w3.org/1999/02/22-rdf-syntax-ns#"
   xmlns:svg="http://www.w3.org/2000/svg"
   xmlns="http://www.w3.org/2000/svg"
   xmlns:sodipodi="http://sodipodi.sourceforge.net/DTD/sodipodi-0.dtd"
   xmlns:inkscape="http://www.inkscape.org/namespaces/inkscape"
   width="1200"
   height="1200"
   viewBox="0 0 317.49999 317.50001"
   version="1.1"
   id="svg8"
   inkscape:version="0.92.5 (2060ec1f9f, 2020-04-08)"
   sodipodi:docname="Logotyp_White_Sec.svg"
   inkscape:export-filename="C:\Users\komvl\Videos\MP\Logo\Logotyp_White_Sec.png"
   inkscape:export-xdpi="300"
   inkscape:export-ydpi="300">
  <defs
     id="defs2">
    <pattern
       y="0"
       x="0"
       height="6"
       width="6"
       patternUnits="userSpaceOnUse"
       id="EMFhbasepattern" />
  </defs>
  <sodipodi:namedview
     id="base"
     pagecolor="#ffffff"
     bordercolor="#666666"
     borderopacity="1.0"
     inkscape:pageopacity="0.0"
     inkscape:pageshadow="2"
     inkscape:zoom="0.35355339"
     inkscape:cx="178.37895"
     inkscape:cy="556.0639"
     inkscape:document-units="px"
     inkscape:current-layer="layer2"
     showgrid="false"
     units="px"
     inkscape:window-width="1366"
     inkscape:window-height="705"
     inkscape:window-x="-8"
     inkscape:window-y="-8"
     inkscape:window-maximized="1"
     inkscape:pagecheckerboard="true"
     showguides="true"
     inkscape:guide-bbox="true" />
  <metadata
     id="metadata5">
    <rdf:RDF>
      <cc:Work
         rdf:about="">
        <dc:format>image/svg+xml</dc:format>
        <dc:type
           rdf:resource="http://purl.org/dc/dcmitype/StillImage" />
        <dc:title></dc:title>
      </cc:Work>
    </rdf:RDF>
  </metadata>
  <g
     inkscape:groupmode="layer"
     id="layer2"
     inkscape:label="Vrstva 2"
     style="display:inline">
    <path
       style="opacity:1;fill:#ffffff;fill-opacity:1;stroke:none;stroke-width:0.08311359px;stroke-linecap:butt;stroke-linejoin:miter;stroke-opacity:1"
       d="m 141.54745,72.490897 c -0.62485,0.0015 -1.25012,0.01371 -1.87541,0.03684 v 8.479697 c 16.59338,-0.390411 27.72847,5.672611 32.01237,21.620266 -20.10271,-8.595556 -36.07093,4.68971 -43.28401,21.27213 -4.45132,11.51281 -3.74026,21.57301 0.56573,28.64757 4.33633,7.12441 12.80015,11.81965 24.76087,10.35593 11.18315,-1.02085 21.0016,-8.94403 26.16342,-19.51384 8.60457,-15.75263 6.96926,-36.83146 -1.11375,-51.325838 -2.77678,-5.033238 -6.6262,-9.066219 -11.15688,-12.132799 -7.43284,-5.03091 -16.69951,-7.46095 -26.07234,-7.439964 z m 18.884,36.525233 c 1.96298,0.007 3.88698,0.32048 5.70205,0.90775 11.51178,3.72471 10.09447,18.99995 5.58061,27.73758 -2.20785,4.27384 -5.96667,9.12678 -10.66661,12.14985 -5.07404,3.26369 -11.10538,4.5013 -15.92973,2.41826 -4.09625,-1.76866 -7.60617,-5.64057 -8.78148,-10.51777 -1.34593,-5.58527 0.074,-12.38009 2.13239,-16.98668 2.43756,-5.4551 8.16334,-11.49298 14.34699,-14.14607 2.50374,-1.07422 5.09194,-1.57195 7.61578,-1.56292 z"
       id="path22"
       inkscape:connector-curvature="0"
       sodipodi:nodetypes="sccccscccsssssssssss" />
    <g
       id="g1163"
       transform="translate(2.6458334,12.700003)"
       style="fill:#ffffff;fill-opacity:1">
      <path
         id="path843"
         d="m 21.948516,215.50346 c -1.961928,0.0246 -4.004884,1.62351 -4.021977,4.47983 -0.02106,3.51902 2.22771,5.11203 5.051888,4.68344 0.732846,-0.11122 1.554605,-0.39526 2.3797,-0.75758 l 0.0041,-1.3286 c 0,0 -0.908163,0.47723 -1.349787,0.61392 -0.845564,0.26173 -1.613189,0.3572 -2.199349,0.29817 -0.694658,-0.0699 -1.371045,-0.49694 -1.947169,-1.47795 -0.134486,-0.229 -0.26242,-0.59579 -0.32556,-0.9281 -0.07299,-0.38416 -0.0708,-0.72037 -0.0708,-0.72037 l 6.015135,-5.3e-4 c 0.141423,-2.03267 -0.453715,-3.39698 -1.396812,-4.14859 -0.616677,-0.49146 -1.371695,-0.72325 -2.139405,-0.71365 z m 0.02376,1.21698 c 0.567111,-0.006 1.137068,0.24549 1.580267,0.85473 0.417549,0.69266 0.350882,1.69447 0.350882,1.69447 h -4.34081 c 0,0 0.144521,-0.62669 0.26665,-0.91829 0.200814,-0.47946 0.477666,-0.90388 0.886251,-1.19631 0.376425,-0.26941 0.815684,-0.42989 1.256771,-0.4346 z"
         style="opacity:1;fill:#ffffff;fill-opacity:1;stroke:none;stroke-width:0.26458332px;stroke-linecap:butt;stroke-linejoin:miter;stroke-opacity:1"
         inkscape:connector-curvature="0" />
      <path
         id="path843-6"
         d="m 43.254709,215.50501 c -1.961928,0.0246 -4.004882,1.62299 -4.021976,4.47932 -0.02106,3.51902 2.227709,5.11202 5.051888,4.68343 0.732845,-0.11122 1.554604,-0.39526 2.379699,-0.75758 l 0.0041,-1.3286 c 0,0 -0.908167,0.47723 -1.349791,0.61392 -0.845563,0.26173 -1.61267,0.3572 -2.19883,0.29817 -0.694658,-0.0699 -1.37156,-0.49642 -1.947685,-1.47743 -0.134485,-0.229 -0.262422,-0.5963 -0.325562,-0.92862 -0.07299,-0.38415 -0.07028,-0.72037 -0.07028,-0.72037 l 6.014622,-5.3e-4 c 0.141422,-2.03267 -0.453716,-3.39697 -1.396815,-4.14858 -0.616678,-0.49146 -1.371693,-0.72274 -2.139405,-0.71314 z m 0.02379,1.21647 c 0.56711,-0.006 1.137581,0.24547 1.580782,0.85473 0.417544,0.69265 0.350364,1.69447 0.350364,1.69447 h -4.34082 c 0,0 0.14452,-0.6267 0.266652,-0.9183 0.200811,-0.47946 0.477663,-0.90387 0.886251,-1.1963 0.376423,-0.26941 0.815684,-0.42989 1.256771,-0.4346 z"
         style="display:inline;opacity:1;fill:#ffffff;fill-opacity:1;stroke:none;stroke-width:0.26458332px;stroke-linecap:butt;stroke-linejoin:miter;stroke-opacity:1"
         inkscape:connector-curvature="0" />
      <path
         id="path843-3"
         d="m 169.38655,215.50501 c -1.96193,0.0246 -4.00488,1.62299 -4.02198,4.47932 -0.0211,3.51902 2.22771,5.11202 5.05189,4.68343 0.73284,-0.11122 1.55512,-0.39526 2.38021,-0.75758 l 0.004,-1.3286 c 0,0 -0.90817,0.47723 -1.34979,0.61392 -0.84556,0.26173 -1.61267,0.3572 -2.19883,0.29817 -0.69466,-0.0699 -1.37157,-0.49642 -1.94769,-1.47743 -0.13449,-0.229 -0.26242,-0.5963 -0.32556,-0.92862 -0.073,-0.38415 -0.0703,-0.72037 -0.0703,-0.72037 l 6.01514,-5.3e-4 c 0.14142,-2.03267 -0.45372,-3.39697 -1.39682,-4.14858 -0.61667,-0.49146 -1.3722,-0.72274 -2.13992,-0.71314 z m 0.0243,1.21647 c 0.56711,-0.006 1.13707,0.24547 1.58026,0.85473 0.41754,0.69265 0.35088,1.69447 0.35088,1.69447 h -4.34082 c 0,0 0.14453,-0.6267 0.26665,-0.9183 0.20082,-0.47946 0.47766,-0.90387 0.88626,-1.1963 0.37642,-0.26941 0.81568,-0.42989 1.25677,-0.4346 z"
         style="display:inline;opacity:1;fill:#ffffff;fill-opacity:1;stroke:none;stroke-width:0.26458332px;stroke-linecap:butt;stroke-linejoin:miter;stroke-opacity:1"
         inkscape:connector-curvature="0" />
      <path
         id="path843-9"
         d="m 288.07195,215.5045 c -1.96193,0.0246 -4.00488,1.6235 -4.02197,4.47983 -0.0211,3.51902 2.2277,5.11202 5.05189,4.68343 0.73284,-0.11122 1.55459,-0.39577 2.37969,-0.75809 l 0.004,-1.32809 c 0,0 -0.90815,0.47723 -1.34977,0.61392 -0.84555,0.26173 -1.61319,0.3572 -2.19935,0.29817 -0.69466,-0.0699 -1.37104,-0.49693 -1.94717,-1.47794 -0.13449,-0.229 -0.26294,-0.59631 -0.32608,-0.92863 -0.073,-0.38415 -0.0703,-0.72037 -0.0703,-0.72037 h 6.01513 c 0.14142,-2.03267 -0.45371,-3.39697 -1.39682,-4.14858 -0.61666,-0.49146 -1.37167,-0.72326 -2.13939,-0.71365 z m 0.0238,1.21646 c 0.5671,-0.006 1.1376,0.24548 1.58078,0.85473 0.41754,0.69265 0.35038,1.69499 0.35038,1.69499 h -4.34083 c 0,0 0.14452,-0.6267 0.26665,-0.9183 0.20082,-0.47946 0.47768,-0.90439 0.88625,-1.19682 0.37642,-0.26941 0.81568,-0.42989 1.25677,-0.4346 z"
         style="display:inline;opacity:1;fill:#ffffff;fill-opacity:1;stroke:none;stroke-width:0.26458332px;stroke-linecap:butt;stroke-linejoin:miter;stroke-opacity:1"
         inkscape:connector-curvature="0" />
      <path
         inkscape:connector-curvature="0"
         id="path881"
         d="m 29.5341,211.86958 v 1.22369 h 2.645833 v 11.37709 h 4.134115 v -1.19063 h -2.711979 v -11.37708 z"
         style="opacity:1;fill:#ffffff;fill-opacity:1;stroke:none;stroke-width:0.26458332px;stroke-linecap:butt;stroke-linejoin:miter;stroke-opacity:1" />
      <path
         sodipodi:nodetypes="ccscccccc"
         inkscape:connector-curvature="0"
         id="path883"
         d="m 59.503842,216.00439 v 1.42655 c -1.280953,-0.52256 -2.923409,-0.9324 -4.007546,-0.38284 -2.584575,1.31014 -1.895995,5.4136 0.316574,6.1929 1.496469,0.46067 3.690972,-0.40787 3.690972,-0.40787 v 1.37978 c 0,0 -2.633946,0.99883 -4.593382,0.20558 -3.922733,-1.90453 -3.341343,-6.96937 -0.05015,-8.5375 2.030185,-0.88986 4.643534,0.1234 4.643534,0.1234 z"
         style="opacity:1;fill:#ffffff;fill-opacity:1;stroke:none;stroke-width:0.26458332px;stroke-linecap:butt;stroke-linejoin:miter;stroke-opacity:1" />
      <path
         sodipodi:nodetypes="ccscccccc"
         inkscape:connector-curvature="0"
         id="path883-8"
         d="m 124.98073,216.01198 v 1.42655 c -1.28096,-0.52256 -2.92341,-0.9324 -4.00755,-0.38284 -2.58458,1.31014 -1.896,5.4136 0.31657,6.1929 1.49647,0.46067 3.69098,-0.40787 3.69098,-0.40787 v 1.37978 c 0,0 -2.63395,0.99883 -4.59339,0.20558 -3.92273,-1.90453 -3.34134,-6.96937 -0.0502,-8.5375 2.03019,-0.88986 4.64354,0.1234 4.64354,0.1234 z"
         style="display:inline;opacity:1;fill:#ffffff;fill-opacity:1;stroke:none;stroke-width:0.26458332px;stroke-linecap:butt;stroke-linejoin:miter;stroke-opacity:1" />
      <path
         sodipodi:nodetypes="ccccccscccccccccc"
         inkscape:connector-curvature="0"
         id="path900"
         d="m 65.597281,212.97267 -0.0024,3.51574 -2.182605,0.001 0.0025,1.21231 2.172654,-0.008 v 3.77031 c 0.128214,2.04426 0.574338,2.85769 2.668473,3.21197 0.990567,0.16758 1.791362,-0.063 2.906136,-0.52135 l 0.0124,-1.29585 c -0.658324,0.44682 -2.993269,1.30536 -3.85521,-0.15741 -0.290387,-0.56945 -0.261449,-1.35307 -0.261449,-1.35307 v -3.65992 h 3.882091 v -1.20438 h -3.893783 v -3.50792 z"
         style="opacity:1;fill:#ffffff;fill-opacity:1;stroke:none;stroke-width:0.26458332px;stroke-linecap:butt;stroke-linejoin:miter;stroke-opacity:1" />
      <path
         sodipodi:nodetypes="cccccccscccc"
         inkscape:connector-curvature="0"
         id="path902"
         d="m 74.199077,215.76391 h 1.463476 v 1.90996 c 1.053002,-1.48223 2.317892,-2.68552 5.089094,-1.90582 v 3.12952 h -1.409732 v -1.98437 c -0.498955,-0.0644 -0.927045,-0.0798 -1.342107,0.1014 -1.425524,0.62238 -2.340346,2.40393 -2.341803,2.40416 v 5.06607 h -1.447011 z"
         style="opacity:1;fill:#ffffff;fill-opacity:1;stroke:none;stroke-width:0.26458332px;stroke-linecap:butt;stroke-linejoin:miter;stroke-opacity:1" />
      <path
         id="path904"
         d="m 88.312929,215.52517 c -0.3623,0.008 -0.819307,0.0279 -1.252634,0.14986 -2.047938,0.57657 -2.932249,2.60478 -2.945026,4.35167 -0.0016,0.56324 0.05613,1.21795 0.261999,1.8402 0.231616,0.70009 0.639529,1.3625 1.151866,1.86759 0.716104,0.70598 1.816478,1.00226 2.702145,0.9927 0.550907,-0.006 1.404831,-0.15589 2.075318,-0.53434 0.736284,-0.41353 1.245871,-1.04184 1.573021,-1.75183 0.384467,-0.83446 0.516847,-1.78141 0.467667,-2.62464 -0.0363,-0.97777 -0.387097,-2.18224 -1.101224,-3.00034 -0.754447,-0.86427 -1.899738,-1.31481 -2.933132,-1.29087 z m -0.0191,1.20768 c 0.648874,-0.0176 1.368011,0.31342 1.841738,0.94929 0.448407,0.6019 0.668627,1.48823 0.691427,2.20762 0.0309,0.62038 -0.0521,1.3172 -0.29352,1.93115 -0.205427,0.52236 -0.525747,0.98507 -0.988054,1.28933 -0.421007,0.27842 -0.956834,0.38773 -1.302751,0.39273 -0.556117,0.007 -1.246874,-0.2113 -1.696531,-0.7307 -0.321697,-0.37162 -0.578017,-0.85848 -0.723467,-1.37356 -0.129157,-0.45782 -0.165557,-0.93952 -0.164847,-1.35392 0.008,-1.28525 0.563567,-2.77767 1.849488,-3.20187 0.27209,-0.0898 0.559017,-0.10507 0.786517,-0.11007 z"
         style="opacity:1;fill:#ffffff;fill-opacity:1;stroke:none;stroke-width:0.26458332px;stroke-linecap:butt;stroke-linejoin:miter;stroke-opacity:1"
         inkscape:connector-curvature="0" />
      <path
         id="path904-9"
         d="m 250.10367,215.52517 c -0.3623,0.008 -0.8193,0.0284 -1.25264,0.15038 -2.04795,0.57656 -2.93225,2.60478 -2.94504,4.35167 -0.002,0.56324 0.0562,1.21743 0.262,1.83968 0.23162,0.70009 0.63953,1.3625 1.15187,1.86759 0.71611,0.70598 1.81649,1.00278 2.70216,0.99322 0.55091,-0.006 1.40485,-0.1559 2.07533,-0.53434 0.7363,-0.41353 1.24589,-1.04184 1.57303,-1.75183 0.38448,-0.83446 0.51685,-1.78193 0.46767,-2.62516 -0.0363,-0.97777 -0.38709,-2.18224 -1.10122,-3.00034 -0.75446,-0.86427 -1.89976,-1.31481 -2.93316,-1.29087 z m -0.0191,1.20768 c 0.64888,-0.0176 1.36802,0.31394 1.84175,0.94981 0.44841,0.6019 0.66863,1.48823 0.69143,2.20761 0.0309,0.62039 -0.0521,1.3172 -0.29352,1.93115 -0.20543,0.52237 -0.52575,0.98456 -0.98805,1.28882 -0.42101,0.27842 -0.95685,0.38825 -1.30277,0.39325 -0.55612,0.007 -1.24687,-0.2113 -1.69654,-0.7307 -0.32169,-0.37162 -0.57801,-0.859 -0.72346,-1.37408 -0.12917,-0.45782 -0.16556,-0.93952 -0.16485,-1.35392 0.008,-1.28525 0.56357,-2.77716 1.8495,-3.20136 0.27209,-0.0898 0.55901,-0.10558 0.78651,-0.11058 z"
         style="display:inline;opacity:1;fill:#ffffff;fill-opacity:1;stroke:none;stroke-width:0.26458332px;stroke-linecap:butt;stroke-linejoin:miter;stroke-opacity:1"
         inkscape:connector-curvature="0" />
      <path
         sodipodi:nodetypes="ccccccccc"
         inkscape:connector-curvature="0"
         id="path881-1"
         d="m 108.06768,215.72791 v 1.25676 h 2.46394 v 7.50756 l 3.88606,-0.0165 v -1.19063 l -2.46393,0.0165 v -7.54062 z"
         style="display:inline;opacity:1;fill:#ffffff;fill-opacity:1;stroke:none;stroke-width:0.26458332px;stroke-linecap:butt;stroke-linejoin:miter;stroke-opacity:1" />
      <circle
         r="0.94128984"
         cy="212.59587"
         cx="111.23763"
         id="path958"
         style="opacity:1;fill:#ffffff;fill-opacity:1;fill-rule:nonzero;stroke:none;stroke-width:0.51935482;stroke-linejoin:miter;stroke-miterlimit:4;stroke-dasharray:none;stroke-opacity:1;paint-order:markers stroke fill" />
      <path
         sodipodi:nodetypes="ccccccccc"
         inkscape:connector-curvature="0"
         id="path881-1-0"
         d="m 187.88656,215.71688 v 1.25675 h 2.46394 v 7.50756 l 3.88606,-0.0165 v -1.19063 l -2.46393,0.0165 v -7.54061 z"
         style="display:inline;opacity:1;fill:#ffffff;fill-opacity:1;stroke:none;stroke-width:0.26458332px;stroke-linecap:butt;stroke-linejoin:miter;stroke-opacity:1" />
      <circle
         r="0.9412899"
         cy="212.58484"
         cx="191.05643"
         id="path958-7"
         style="display:inline;opacity:1;fill:#ffffff;fill-opacity:1;fill-rule:nonzero;stroke:none;stroke-width:0.51935482;stroke-linejoin:miter;stroke-miterlimit:4;stroke-dasharray:none;stroke-opacity:1;paint-order:markers stroke fill" />
      <path
         sodipodi:nodetypes="cccssccccsccccc"
         inkscape:connector-curvature="0"
         id="path978"
         d="m 97.416215,215.76391 h 1.463464 v 1.88516 c 0,0 1.482791,-2.4801 3.745501,-2.07533 0.54855,0.0981 1.27182,0.44924 1.61664,1.06316 0.45792,0.8153 0.43288,1.97964 0.43288,1.97964 l 0.0175,5.86209 h -1.44694 v -4.85345 c 0.0177,-1.02454 -0.0359,-1.91404 -0.40944,-2.35276 -0.64525,-0.75783 -1.91722,-0.44945 -3.062627,0.82246 -0.589097,0.63591 -0.893554,1.29879 -0.893554,1.29879 v 5.09322 h -1.475084 z"
         style="opacity:1;fill:#ffffff;fill-opacity:1;stroke:none;stroke-width:0.26458332px;stroke-linecap:butt;stroke-linejoin:miter;stroke-opacity:1" />
      <path
         sodipodi:nodetypes="cccssccccsccccc"
         inkscape:connector-curvature="0"
         id="path978-2"
         d="m 211.33293,215.7493 h 1.46347 v 1.88516 c 0,0 1.4828,-2.4801 3.74551,-2.07533 0.54855,0.0981 1.27182,0.44924 1.61664,1.06316 0.45792,0.8153 0.43288,1.97964 0.43288,1.97964 l 0.0175,5.86209 h -1.44694 v -4.85345 c 0.0177,-1.02454 -0.0359,-1.91404 -0.40944,-2.35276 -0.64525,-0.75783 -1.91722,-0.44945 -3.06263,0.82246 -0.5891,0.63591 -0.89356,1.29879 -0.89356,1.29879 v 5.09322 h -1.47509 z"
         style="display:inline;opacity:1;fill:#ffffff;fill-opacity:1;stroke:none;stroke-width:0.26458332px;stroke-linecap:butt;stroke-linejoin:miter;stroke-opacity:1" />
      <path
         sodipodi:nodetypes="cccssccccsccccc"
         inkscape:connector-curvature="0"
         id="path978-2-6"
         d="m 233.70544,211.86642 h 1.46347 v 5.75469 c 0,0 1.4828,-2.4801 3.74551,-2.07533 0.54855,0.0981 1.27182,0.44924 1.61664,1.06316 0.45792,0.8153 0.43288,1.97964 0.43288,1.97964 l 0.0175,5.86209 h -1.44694 v -4.85345 c 0.0177,-1.02454 -0.0359,-1.91404 -0.40944,-2.35276 -0.64525,-0.75783 -1.91722,-0.44945 -3.06263,0.82246 -0.5891,0.63591 -0.89356,1.29879 -0.89356,1.29879 v 5.09322 h -1.47509 z"
         style="display:inline;opacity:1;fill:#ffffff;fill-opacity:1;stroke:none;stroke-width:0.26458332px;stroke-linecap:butt;stroke-linejoin:miter;stroke-opacity:1" />
      <path
         sodipodi:nodetypes="cccssccccsccccc"
         inkscape:connector-curvature="0"
         id="path978-2-64"
         d="m 266.94823,224.44003 -1.46345,0.007 -0.009,-1.88514 c 0,0 -1.47158,2.48678 -3.7361,2.09224 -0.54899,-0.0956 -1.27384,-0.44349 -1.62142,-1.05584 -0.46161,-0.81323 -0.44184,-1.97766 -0.44184,-1.97766 l -0.0439,-5.86196 1.44694,-0.007 0.0219,4.8534 c -0.0135,1.02461 0.0446,1.91386 0.42006,2.35089 0.64868,0.7549 1.91922,0.44078 3.05887,-0.8363 0.58622,-0.63856 0.8877,-1.30281 0.8877,-1.30281 l -0.023,-5.09317 1.47507,-0.007 z"
         style="display:inline;opacity:1;fill:#ffffff;fill-opacity:1;stroke:none;stroke-width:0.26458332px;stroke-linecap:butt;stroke-linejoin:miter;stroke-opacity:1" />
      <path
         sodipodi:nodetypes="ccsssscssccssssscc"
         inkscape:connector-curvature="0"
         id="path1025"
         d="m 136.40919,217.22739 v -1.30638 c 0,0 -2.16439,-0.58242 -3.83921,-0.32141 -1.23691,0.19276 -2.20697,1.07416 -2.2929,1.96738 -0.0782,0.81247 0.10826,1.56495 0.69803,2.01927 0.84198,0.64861 2.14226,1.01609 3.17776,1.4448 0.51393,0.21278 0.99789,0.38776 1.2585,0.72428 0.21623,0.29838 0.20611,0.77855 0.0533,1.04535 -0.44724,0.78098 -1.98527,0.83946 -3.20679,0.58142 -1.29364,-0.27327 -2.26093,-0.88835 -2.26093,-0.88835 v 1.55443 c 0,0 1.6761,0.6442 3.43923,0.68014 1.46862,0.0299 3.02041,-0.39001 3.50216,-1.69663 0.24077,-0.65302 0.19773,-1.20359 0.057,-1.63699 -0.50796,-1.56405 -2.99149,-1.88323 -4.31737,-2.50981 -0.54594,-0.258 -1.02363,-0.62758 -0.92721,-1.08114 0.42259,-1.98798 4.65693,-0.5842 4.65844,-0.57636 z"
         style="opacity:1;fill:#ffffff;fill-opacity:1;stroke:none;stroke-width:0.26458332px;stroke-linecap:butt;stroke-linejoin:miter;stroke-opacity:1" />
      <path
         sodipodi:nodetypes="ccsssscssccssssscc"
         inkscape:connector-curvature="0"
         id="path1025-5"
         d="m 183.73839,217.21668 v -1.30638 c 0,0 -2.16439,-0.58242 -3.83921,-0.32141 -1.23691,0.19276 -2.20697,1.07416 -2.2929,1.96738 -0.0782,0.81247 0.10826,1.56495 0.69803,2.01927 0.84198,0.64861 2.14226,1.01609 3.17776,1.4448 0.51393,0.21278 0.99789,0.38776 1.2585,0.72428 0.21623,0.29838 0.20611,0.77855 0.0533,1.04535 -0.44724,0.78098 -1.98527,0.83946 -3.20679,0.58142 -1.29364,-0.27327 -2.26093,-0.88835 -2.26093,-0.88835 v 1.55443 c 0,0 1.6761,0.6442 3.43923,0.68014 1.46862,0.0299 3.02041,-0.39001 3.50216,-1.69663 0.24077,-0.65302 0.19773,-1.20359 0.057,-1.63699 -0.50796,-1.56405 -2.99149,-1.88323 -4.31737,-2.50981 -0.54594,-0.258 -1.02363,-0.62758 -0.92721,-1.08114 0.42259,-1.98798 4.65693,-0.5842 4.65844,-0.57636 z"
         style="display:inline;opacity:1;fill:#ffffff;fill-opacity:1;stroke:none;stroke-width:0.26458332px;stroke-linecap:butt;stroke-linejoin:miter;stroke-opacity:1" />
      <path
         sodipodi:nodetypes="ccsssscssccssssscc"
         inkscape:connector-curvature="0"
         id="path1025-1"
         d="m 279.04779,217.23414 v -1.30638 c 0,0 -2.16439,-0.58242 -3.83921,-0.32141 -1.23691,0.19276 -2.20697,1.07416 -2.2929,1.96738 -0.0782,0.81248 0.10826,1.56496 0.69803,2.01927 0.84198,0.64862 2.14226,1.0161 3.17776,1.44481 0.51393,0.21278 0.99789,0.38776 1.2585,0.72427 0.21623,0.29839 0.20611,0.77855 0.0533,1.04535 -0.44724,0.78099 -1.98527,0.83947 -3.20679,0.58142 -1.29364,-0.27326 -2.26093,-0.88834 -2.26093,-0.88834 v 1.55443 c 0,0 1.6761,0.6442 3.43923,0.68014 1.46862,0.0299 3.02041,-0.39002 3.50216,-1.69663 0.24077,-0.65302 0.19773,-1.2036 0.057,-1.637 -0.50796,-1.56404 -2.99149,-1.88323 -4.31737,-2.5098 -0.54594,-0.258 -1.02363,-0.62759 -0.92721,-1.08115 0.42259,-1.98798 4.65693,-0.5842 4.65844,-0.57636 z"
         style="display:inline;opacity:1;fill:#ffffff;fill-opacity:1;stroke:none;stroke-width:0.26458332px;stroke-linecap:butt;stroke-linejoin:miter;stroke-opacity:1" />
      <path
         id="path1048"
         d="m 157.025,211.87784 -0.001,3.88401 c 0,0 -1.10538,-0.19329 -2.12235,-0.10439 -2.51743,0.1864 -3.96176,2.63231 -4.01526,5.09581 0.0233,0.74883 0.0239,1.37826 0.28939,2.06034 0.39053,1.00315 1.22278,1.7236 2.12752,1.86707 1.02993,0.13905 2.06509,-0.34411 2.85977,-1.07022 0.3425,-0.31294 0.86197,-1.05782 0.86197,-1.05782 v 1.94097 h 1.45572 v -12.60543 z m -1.42679,5.0121 c 0.40299,0.003 0.8596,0.0602 1.41542,0.15555 v 3.77031 c 0,0 -0.28593,0.55565 -0.73019,1.10123 -0.35214,0.43243 -0.82565,0.84518 -1.18132,1.06246 -0.46753,0.28562 -0.96352,0.52493 -1.52962,0.24547 -1.31986,-0.65154 -1.42895,-2.75118 -0.79841,-4.32635 0.36481,-0.91135 1.04466,-1.59239 1.72962,-1.83762 0.34237,-0.12257 0.69151,-0.17401 1.0945,-0.17105 z"
         style="opacity:1;fill:#ffffff;fill-opacity:1;stroke:none;stroke-width:0.26458332px;stroke-linecap:butt;stroke-linejoin:miter;stroke-opacity:1"
         inkscape:connector-curvature="0" />
      <path
         id="path1052"
         d="m 202.66413,215.62025 c -0.54938,0.018 -1.08568,0.11541 -1.60869,0.33745 -0.89563,0.37101 -1.71334,1.16723 -2.23759,2.29702 -0.90692,1.95449 -0.9554,4.56571 0.76275,5.99136 1.11155,0.88466 2.80815,0.47307 3.85403,-0.555 0.35431,-0.30699 0.95601,-1.17202 0.95601,-1.17202 -10e-4,0.77724 0.0224,1.4582 -0.0212,2.0345 -0.0735,0.97161 -0.48585,1.63953 -1.25884,2.0314 -0.49429,0.25056 -1.11201,0.34149 -1.82521,0.31109 -1.50735,-0.0643 -3.01481,-1.0697 -3.01481,-1.0697 v 1.48518 c 1.13603,0.48243 2.49201,0.99289 4.00803,0.76688 0.74002,-0.11032 1.58933,-0.36948 2.33216,-0.94465 0.95428,-0.74711 1.11213,-1.77507 1.22524,-3.11971 v -8.2553 h -1.48518 c -0.57498,-0.0952 -1.13734,-0.15647 -1.68672,-0.1385 z m 0.29507,1.25316 c 0.403,0.003 0.85908,0.0602 1.4149,0.15554 v 3.77031 c 0,0 -0.28592,0.55566 -0.73019,1.10123 -0.35214,0.43243 -0.82565,0.8457 -1.18132,1.06298 -0.46753,0.28562 -0.96352,0.52441 -1.52962,0.24495 -1.31986,-0.65154 -1.42895,-2.75117 -0.7984,-4.32635 0.36481,-0.91134 1.04466,-1.59238 1.72961,-1.83762 0.34237,-0.12257 0.69203,-0.17401 1.09502,-0.17104 z"
         style="opacity:1;fill:#ffffff;fill-opacity:1;stroke:none;stroke-width:0.26458332px;stroke-linecap:butt;stroke-linejoin:miter;stroke-opacity:1"
         inkscape:connector-curvature="0" />
    </g>
    <g
       id="g1588"
       style="fill:#ffffff;fill-opacity:1"
       transform="translate(0,9.5250003)">
      <path
         id="path1048-9-8"
         d="m 94.7227,178.05627 -8.9e-4,7.15884 c 0,0 -2.037407,-0.35626 -3.911827,-0.1924 -4.64004,0.34358 -7.302164,4.85177 -7.40077,9.39238 0.0429,1.38021 0.04403,2.54035 0.533391,3.79752 0.719806,1.84899 2.253779,3.17689 3.921355,3.44132 1.898324,0.25629 3.80628,-0.63425 5.271007,-1.97259 0.631284,-0.57678 1.588754,-1.94972 1.588754,-1.94972 v 3.5775 h 2.68311 v -23.23378 z m -2.629797,9.2381 c 0.742771,0.006 1.584397,0.11081 2.608847,0.28671 v 6.94927 c 0,0 -0.52702,1.02414 -1.34586,2.02974 -0.649054,0.79703 -1.521805,1.55781 -2.177357,1.95829 -0.861738,0.52643 -1.775904,0.96751 -2.819326,0.45243 -2.432711,-1.20089 -2.633772,-5.07085 -1.471586,-7.97415 0.672393,-1.67976 1.925466,-2.93502 3.187956,-3.38701 0.631035,-0.22593 1.274566,-0.32075 2.017326,-0.31528 z"
         style="display:inline;opacity:1;fill:#ffffff;fill-opacity:1;stroke:none;stroke-width:0.48766866px;stroke-linecap:butt;stroke-linejoin:miter;stroke-opacity:1"
         inkscape:connector-curvature="0" />
      <path
         sodipodi:nodetypes="ccccccccc"
         inkscape:connector-curvature="0"
         id="path881-1-3-2"
         d="m 101.29815,185.37898 v 2.31641 h 4.54142 v 13.83762 l 7.16264,-0.0303 v -2.1945 l -4.54143,0.0303 v -13.89856 z"
         style="display:inline;opacity:1;fill:#ffffff;fill-opacity:1;stroke:none;stroke-width:0.48766866px;stroke-linecap:butt;stroke-linejoin:miter;stroke-opacity:1" />
      <circle
         r="1.7349453"
         cy="179.60616"
         cx="107.14087"
         id="path958-0-6"
         style="display:inline;opacity:1;fill:#ffffff;fill-opacity:1;fill-rule:nonzero;stroke:none;stroke-width:0.95725268;stroke-linejoin:miter;stroke-miterlimit:4;stroke-dasharray:none;stroke-opacity:1;paint-order:markers stroke fill" />
      <path
         sodipodi:nodetypes="ccccccccc"
         inkscape:connector-curvature="0"
         id="path881-1-3-4"
         d="m 136.32814,185.46544 v 2.31642 h 4.54143 v 13.83761 l 7.16264,-0.0303 v -2.1945 l -4.54143,0.0303 v -13.89856 z"
         style="display:inline;opacity:1;fill:#ffffff;fill-opacity:1;stroke:none;stroke-width:0.48766866px;stroke-linecap:butt;stroke-linejoin:miter;stroke-opacity:1" />
      <circle
         r="1.7349453"
         cy="179.69261"
         cx="142.17085"
         id="path958-0-2"
         style="display:inline;opacity:1;fill:#ffffff;fill-opacity:1;fill-rule:nonzero;stroke:none;stroke-width:0.95725268;stroke-linejoin:miter;stroke-miterlimit:4;stroke-dasharray:none;stroke-opacity:1;paint-order:markers stroke fill" />
      <circle
         r="1.7349453"
         cy="199.84691"
         cx="244.40587"
         id="path958-0-2-6"
         style="display:inline;opacity:1;fill:#ffffff;fill-opacity:1;fill-rule:nonzero;stroke:none;stroke-width:0.95725268;stroke-linejoin:miter;stroke-miterlimit:4;stroke-dasharray:none;stroke-opacity:1;paint-order:markers stroke fill" />
      <circle
         r="1.7349453"
         cy="199.81752"
         cx="273.7941"
         id="path958-0-2-0"
         style="display:inline;opacity:1;fill:#ffffff;fill-opacity:1;fill-rule:nonzero;stroke:none;stroke-width:0.95725268;stroke-linejoin:miter;stroke-miterlimit:4;stroke-dasharray:none;stroke-opacity:1;paint-order:markers stroke fill" />
      <circle
         r="1.7349453"
         cy="199.89987"
         cx="303.78055"
         id="path958-0-2-4"
         style="display:inline;opacity:1;fill:#ffffff;fill-opacity:1;fill-rule:nonzero;stroke:none;stroke-width:0.95725268;stroke-linejoin:miter;stroke-miterlimit:4;stroke-dasharray:none;stroke-opacity:1;paint-order:markers stroke fill" />
      <path
         sodipodi:nodetypes="cccccccscccc"
         inkscape:connector-curvature="0"
         id="path902-4-2"
         d="m 254.11943,185.59891 h 2.69743 v 3.52034 c 1.94085,-2.73198 4.27224,-4.94985 9.38,-3.51274 v 5.76821 h -2.59836 v -3.65753 c -0.91965,-0.1187 -1.70869,-0.14699 -2.47372,0.18692 -2.62746,1.14714 -4.31362,4.43084 -4.31631,4.43124 v 9.33757 h -2.66707 z"
         style="display:inline;opacity:1;fill:#ffffff;fill-opacity:1;stroke:none;stroke-width:0.48766866px;stroke-linecap:butt;stroke-linejoin:miter;stroke-opacity:1" />
      <path
         id="path904-4-5"
         d="m 290.20891,185.04898 c -0.66776,0.0149 -1.51009,0.0514 -2.30879,0.27621 -3.77467,1.06272 -5.4046,4.80101 -5.42816,8.02082 -0.003,1.03815 0.10346,2.24488 0.48292,3.39178 0.4269,1.29038 1.17875,2.5113 2.12307,3.44225 1.3199,1.30123 3.34805,1.84733 4.98048,1.82973 1.01542,-0.0117 2.58933,-0.28735 3.82514,-0.98487 1.35708,-0.76222 2.29634,-1.9203 2.89933,-3.22892 0.70863,-1.53804 0.95262,-3.28342 0.86199,-4.8376 -0.0669,-1.8022 -0.71349,-4.02224 -2.02975,-5.53012 -1.39055,-1.59297 -3.50151,-2.42339 -5.40623,-2.37928 z m -0.0352,2.22596 c 1.19598,-0.0325 2.52146,0.57767 3.39461,1.74968 0.82649,1.10941 1.2324,2.74305 1.27442,4.069 0.0569,1.14345 -0.0961,2.42779 -0.541,3.55941 -0.37864,0.96278 -0.96903,1.81566 -1.82114,2.37643 -0.77598,0.51318 -1.7636,0.71466 -2.40118,0.72387 -1.02501,0.0132 -2.29818,-0.38948 -3.12697,-1.34678 -0.59295,-0.68497 -1.06537,-1.58232 -1.33347,-2.5317 -0.23805,-0.84383 -0.30514,-1.73167 -0.30383,-2.4955 0.0147,-2.36892 1.03874,-5.11968 3.40889,-5.90154 0.50151,-0.16557 1.03036,-0.19366 1.44967,-0.20287 z"
         style="display:inline;opacity:1;fill:#ffffff;fill-opacity:1;stroke:none;stroke-width:0.48766866px;stroke-linecap:butt;stroke-linejoin:miter;stroke-opacity:1"
         inkscape:connector-curvature="0" />
      <path
         sodipodi:nodetypes="cccccccccccccccccccccc"
         id="path1048-9-9"
         d="m 25.159432,185.25024 -8.99e-4,0.0881 c 0,0 -2.037404,-0.35626 -3.911824,-0.1924 -4.640035,0.34358 -7.30216,4.85177 -7.400766,9.39238 0.0429,1.38021 0.04403,2.54035 0.533392,3.79752 0.719805,1.84899 2.253778,3.17689 3.921354,3.44132 1.898324,0.25629 3.80628,-0.63425 5.271007,-1.97259 0.631285,-0.57678 1.588755,-1.94972 1.588755,-1.94972 v 3.5775 l 3.159557,-0.0265 c -0.211092,-1.35124 -0.466788,-2.5538 -0.476448,-4.57648 v -11.56009 z m -2.629799,2.16737 c 0.742771,0.006 1.584396,0.1108 2.608849,0.2867 v 6.94927 c 0,0 -0.52702,1.02415 -1.345862,2.02974 -0.649054,0.79703 -1.521805,1.55781 -2.177356,1.95829 -0.861739,0.52643 -1.775905,0.96751 -2.819326,0.45243 -2.432712,-1.20088 -2.633772,-5.07085 -1.471587,-7.97415 0.672393,-1.67975 1.925466,-2.93502 3.187956,-3.38701 0.631035,-0.22593 1.274566,-0.32074 2.017326,-0.31527 z"
         style="display:inline;opacity:1;fill:#ffffff;fill-opacity:1;stroke:none;stroke-width:0.48766866px;stroke-linecap:butt;stroke-linejoin:miter;stroke-opacity:1"
         inkscape:connector-curvature="0" />
      <path
         inkscape:connector-curvature="0"
         id="path881-6-5"
         d="m 31.552359,178.40766 v 2.25547 h 4.876686 v 20.96977 h 7.619827 v -2.19454 h -4.998607 v -20.96975 z"
         style="display:inline;opacity:1;fill:#ffffff;fill-opacity:1;stroke:none;stroke-width:0.48766866px;stroke-linecap:butt;stroke-linejoin:miter;stroke-opacity:1" />
      <path
         sodipodi:nodetypes="ccccccscccccccccc"
         inkscape:connector-curvature="0"
         id="path900-2-1"
         d="m 52.546071,180.29766 -0.0045,6.48006 -4.02288,9.1e-4 0.0045,2.23446 4.004545,-0.0148 v 6.94929 c 0.236317,3.76789 1.0586,5.26716 4.918416,5.92016 1.825773,0.30887 3.301762,-0.11614 5.356461,-0.96093 l 0.02286,-2.38845 c -1.21339,0.82355 -5.517069,2.40597 -7.105756,-0.29014 -0.535236,-1.04958 -0.481892,-2.49391 -0.481892,-2.49391 v -6.7458 h 7.155307 v -2.21988 h -7.176858 v -6.46564 z"
         style="display:inline;opacity:1;fill:#ffffff;fill-opacity:1;stroke:none;stroke-width:0.48766866px;stroke-linecap:butt;stroke-linejoin:miter;stroke-opacity:1" />
      <path
         id="path1052-4-5"
         d="m 126.4585,185.10428 c -1.01259,0.0332 -2.00108,0.21272 -2.96508,0.62197 -1.65079,0.68383 -3.15795,2.15139 -4.12422,4.23377 -1.6716,3.60243 -1.76097,8.41534 1.40586,11.04302 2.04877,1.63058 5.17586,0.87195 7.1036,-1.02295 0.65304,-0.56583 1.76206,-2.16022 1.76206,-2.16022 -8.9e-4,1.43257 0.0413,2.68771 -0.039,3.74991 -0.13541,1.79083 -0.89549,3.02192 -2.32024,3.74419 -0.91107,0.46181 -2.04962,0.62941 -3.36417,0.57338 -2.77826,-0.11844 -5.55675,-1.97163 -5.55675,-1.97163 v 2.73744 c 2.09388,0.88919 4.59317,1.83004 7.38743,1.41346 1.36396,-0.20332 2.92937,-0.68099 4.29853,-1.74113 1.75889,-1.37703 2.04984,-3.27172 2.25833,-5.75012 v -15.2158 h -2.73744 c -1.05978,-0.17546 -2.09628,-0.2884 -3.10887,-0.25529 z m 0.54387,2.30976 c 0.74279,0.006 1.58339,0.11081 2.60786,0.28671 v 6.94927 c 0,0 -0.52699,1.02415 -1.34585,2.02973 -0.64904,0.79703 -1.5218,1.55876 -2.17734,1.95924 -0.86175,0.52644 -1.77593,0.96657 -2.81934,0.45149 -2.43271,-1.20091 -2.63378,-5.07084 -1.47159,-7.97415 0.67241,-1.67973 1.92548,-2.93501 3.18795,-3.38701 0.63106,-0.22593 1.27551,-0.32075 2.01831,-0.31528 z"
         style="display:inline;opacity:1;fill:#ffffff;fill-opacity:1;stroke:none;stroke-width:0.48766866px;stroke-linecap:butt;stroke-linejoin:miter;stroke-opacity:1"
         inkscape:connector-curvature="0" />
      <path
         sodipodi:nodetypes="ccccccscccccccccc"
         inkscape:connector-curvature="0"
         id="path900-2-1-0"
         d="m 156.56338,180.24943 -0.005,6.48006 -4.02288,9.1e-4 0.005,2.23447 4.00454,-0.0148 v 6.94929 c 0.23632,3.76789 1.0586,5.26716 4.91842,5.92016 1.82577,0.30887 3.30176,-0.11613 5.35646,-0.96093 l 0.0229,-2.38844 c -1.21337,0.82355 -5.51705,2.40596 -7.10575,-0.29015 -0.53523,-1.04958 -0.48188,-2.49391 -0.48188,-2.49391 v -6.7458 h 7.15529 v -2.21988 h -7.17685 v -6.46564 z"
         style="display:inline;opacity:1;fill:#ffffff;fill-opacity:1;stroke:none;stroke-width:0.48766866px;stroke-linecap:butt;stroke-linejoin:miter;stroke-opacity:1" />
      <path
         sodipodi:nodetypes="cccccccccccccccccccccc"
         id="path1048-9-9-0"
         d="m 181.33186,185.61651 -9e-4,0.0881 c 0,0 -2.0374,-0.35625 -3.91182,-0.1924 -4.64004,0.34358 -7.30217,4.85178 -7.40077,9.39238 0.0429,1.38022 0.044,2.54035 0.53339,3.79752 0.71981,1.84899 2.25378,3.17689 3.92135,3.44132 1.89833,0.2563 3.80628,-0.63425 5.27101,-1.97258 0.63129,-0.57679 1.58876,-1.94972 1.58876,-1.94972 v 3.5775 l 3.15955,-0.0265 c -0.21108,-1.35124 -0.46679,-2.55379 -0.47644,-4.57647 v -11.5601 z m -2.6298,2.16736 c 0.74277,0.006 1.5844,0.11081 2.60885,0.28671 v 6.94926 c 0,0 -0.52702,1.02415 -1.34586,2.02975 -0.64906,0.79703 -1.52181,1.55781 -2.17736,1.95829 -0.86174,0.52643 -1.77591,0.9675 -2.81933,0.45243 -2.43271,-1.20089 -2.63377,-5.07086 -1.47158,-7.97415 0.67239,-1.67976 1.92546,-2.93503 3.18795,-3.38702 0.63104,-0.22592 1.27457,-0.32074 2.01733,-0.31527 z"
         style="display:inline;opacity:1;fill:#ffffff;fill-opacity:1;stroke:none;stroke-width:0.48766866px;stroke-linecap:butt;stroke-linejoin:miter;stroke-opacity:1"
         inkscape:connector-curvature="0" />
      <path
         inkscape:connector-curvature="0"
         id="path881-6-5-2"
         d="m 187.77725,178.32254 v 2.25546 h 4.87669 v 20.96977 h 7.61982 v -2.19454 h -4.9986 v -20.96974 z"
         style="display:inline;opacity:1;fill:#ffffff;fill-opacity:1;stroke:none;stroke-width:0.48766866px;stroke-linecap:butt;stroke-linejoin:miter;stroke-opacity:1" />
      <path
         sodipodi:nodetypes="ccsssscssccssssscc"
         inkscape:connector-curvature="0"
         id="path1025-8-8"
         d="m 235.00431,188.24824 v -2.40787 c 0,0 -3.98931,-1.07347 -7.07626,-0.59239 -2.27983,0.35528 -4.0678,1.97983 -4.22619,3.62617 -0.14413,1.49752 0.19955,2.88446 1.28659,3.72184 1.5519,1.1955 3.94853,1.87282 5.8571,2.663 0.94725,0.39218 1.83928,0.71468 2.31962,1.33497 0.39855,0.54994 0.37991,1.43497 0.0982,1.92673 -0.82436,1.43948 -3.65916,1.54728 -5.91063,1.07166 -2.38438,-0.50366 -4.16724,-1.63738 -4.16724,-1.63738 v 2.86507 c 0,0 3.08931,1.18734 6.33903,1.2536 2.70691,0.0552 5.5671,-0.71886 6.45504,-3.12714 0.44377,-1.20364 0.36443,-2.21844 0.10515,-3.01726 -0.93626,-2.88276 -5.51379,-3.47109 -7.95762,-4.62597 -1.00625,-0.47553 -1.8867,-1.15673 -1.70897,-1.99269 0.77887,-3.66417 8.58344,-1.07679 8.58623,-1.06234 z"
         style="display:inline;opacity:1;fill:#ffffff;fill-opacity:1;stroke:none;stroke-width:0.48766866px;stroke-linecap:butt;stroke-linejoin:miter;stroke-opacity:1" />
    </g>
  </g>
</svg>
